HIERARCHY
ROOT Hips
{
    OFFSET 0.000000 0.000000 0.000000
    CHANNELS 6 Xposition Yposition Zposition Zrotation Xrotation Yrotation
    JOINT Spine
    {
        OFFSET -0.000000 14.517291 0.000000
        CHANNELS 3 Zrotation Xrotation Yrotation
        JOINT Spine1
        {
            OFFSET -0.000000 37.558300 0.000000
            CHANNELS 3 Zrotation Xrotation Yrotation
            JOINT Neck
            {
                OFFSET -0.000000 37.404057 3.400369
                CHANNELS 3 Zrotation Xrotation Yrotation
                JOINT Head
                {
                    OFFSET -0.000000 24.785618 -3.540803
                    CHANNELS 3 Zrotation Xrotation Yrotation
                    End Site
                    {
                        OFFSET -0.000000 35.408028 0.000000
                    }
                }
            }
            JOINT LeftShoulder
            {
                OFFSET 6.992933 33.973492 -0.192664
                CHANNELS 3 Zrotation Xrotation Yrotation
                JOINT LeftArm
                {
                    OFFSET 21.527611 0.000000 0.000000
                    CHANNELS 3 Zrotation Xrotation Yrotation
                    JOINT LeftForeArm
                    {
                        OFFSET 56.353916 0.000000 0.000000
                        CHANNELS 3 Zrotation Xrotation Yrotation
                        JOINT LeftHand
                        {
                            OFFSET 47.774071 0.000000 0.000000
                            CHANNELS 3 Zrotation Xrotation Yrotation
                            End Site
                            {
                                OFFSET 26.556021 0.000000 0.000000
                            }
                        }
                    }
                }
            }
            JOINT RightShoulder
            {
                OFFSET -7.065357 33.973492 -0.192664
                CHANNELS 3 Zrotation Xrotation Yrotation
                JOINT RightArm
                {
                    OFFSET -21.527611 0.000000 0.000000
                    CHANNELS 3 Zrotation Xrotation Yrotation
                    JOINT RightForeArm
                    {
                        OFFSET -56.353916 0.000000 0.000000
                        CHANNELS 3 Zrotation Xrotation Yrotation
                        JOINT RightHand
                        {
                            OFFSET -47.774071 0.000000 0.000000
                            CHANNELS 3 Zrotation Xrotation Yrotation
                            End Site
                            {
                                OFFSET -26.556021 0.000000 0.000000
                            }
                        }
                    }
                }
            }
        }
    }
    JOINT LeftUpLeg
    {
        OFFSET 17.704014 0.000000 0.000000
        CHANNELS 3 Zrotation Xrotation Yrotation
        JOINT LeftLeg
        {
            OFFSET -0.000000 -81.181816 0.000000
            CHANNELS 3 Zrotation Xrotation Yrotation
            JOINT LeftFoot
            {
                OFFSET -0.000000 -62.821102 0.000000
                CHANNELS 3 Zrotation Xrotation Yrotation
                JOINT LeftToeBase
                {
                    OFFSET -0.000000 -11.507608 26.556021
                    CHANNELS 3 Zrotation Xrotation Yrotation
                    End Site
                    {
                        OFFSET -0.000000 0.000000 7.081605
                    }
                }
            }
        }
    }
    JOINT RightUpLeg
    {
        OFFSET -17.704014 0.000000 0.000000
        CHANNELS 3 Zrotation Xrotation Yrotation
        JOINT RightLeg
        {
            OFFSET -0.000000 -81.181816 0.000000
            CHANNELS 3 Zrotation Xrotation Yrotation
            JOINT RightFoot
            {
                OFFSET -0.000000 -62.821102 0.000000
                CHANNELS 3 Zrotation Xrotation Yrotation
                JOINT RightToeBase
                {
                    OFFSET -0.000000 -11.507608 26.556021
                    CHANNELS 3 Zrotation Xrotation Yrotation
                    End Site
                    {
                        OFFSET -0.000000 0.000000 7.081605
                    }
                }
            }
        }
    }
}
MOTION
Frames:    13
Frame Time:    0.008333
10.249000    156.649155    -3.842354    -1.412275    10.345642    -8.743612    3.542063    1.918222    13.452948    -4.086009    -3.210076    4.389359    6.586051    -5.029656    -4.880812    3.661484    1.505582    -5.880790    5.370186    -0.479402    -6.399933    -42.544102    12.231827    -42.667957    -4.490545    -22.684113    -125.296585    -1.424147    -30.413172    -4.370992    -13.812053    -0.830264    7.685201    27.089190    -23.965448    69.059189    -2.118134    -16.657055    23.826811    10.499159    -12.028208    44.708679    10.592911    -38.972775    -14.178239    -17.750355    32.377445    -11.009958    3.176415    -3.284925    40.578560    0.000000    0.000000    0.000000    -11.697723    13.627860    -10.029975    1.392827    17.001631    -4.300541    12.536745    6.527584    -15.069407    0.000000    0.000000    0.000000    
10.459239    157.016464    -3.419991    -1.496119    10.392383    -8.893976    3.509957    1.901655    13.422663    -3.909496    -3.222851    4.383430    6.528670    -4.920415    -4.824753    3.692289    1.396362    -5.797500    5.297849    -0.429382    -6.420832    -42.497734    12.265575    -42.648335    -4.435200    -22.813936    -125.245438    -1.417570    -30.433865    -4.357922    -13.892685    -0.776371    7.749082    27.034279    -23.908766    69.095924    -2.181391    -16.713140    23.907478    10.569607    -12.040163    44.728573    10.594486    -38.582100    -14.028485    -17.404594    32.005516    -11.187880    3.115237    -3.223068    40.550110    0.000000    0.000000    0.000000    -11.483957    13.309812    -10.358386    1.388065    16.853992    -4.386657    13.135442    6.020433    -13.954541    0.000000    0.000000    0.000000    
10.707872    157.345291    -3.030175    -1.526325    10.442820    -9.043714    4.249570    1.581803    13.204557    -5.140730    -2.436866    4.311411    7.191417    -5.060163    -4.554571    3.681194    1.194761    -5.647889    5.942541    -0.707967    -6.263150    -42.413078    12.262746    -42.654758    -4.383046    -23.103094    -125.155251    -1.471855    -30.601398    -4.367999    -13.227291    -1.187262    8.194311    27.051947    -24.096630    68.991020    -2.022602    -16.529404    23.949522    10.468434    -11.926510    44.722355    10.565372    -38.251038    -13.987920    -17.221992    31.635216    -11.246760    3.095557    -3.124682    40.563183    0.000000    0.000000    0.000000    -11.352702    12.966297    -10.746039    1.399691    16.746996    -4.469056    14.102551    5.500770    -12.892724    0.000000    0.000000    0.000000    
10.943088    157.664764    -2.647537    -1.552691    10.506195    -9.189803    4.384561    1.613100    13.167868    -5.426329    -2.438318    4.294076    7.467027    -5.097453    -4.449265    3.571000    1.171849    -5.608063    6.177943    -0.754174    -6.183538    -42.447598    12.383513    -42.715218    -4.339838    -23.173317    -125.119087    -1.395300    -30.592123    -4.351930    -13.065855    -1.213072    8.158347    26.972069    -23.976566    69.044922    -2.098021    -16.580490    24.039209    10.569980    -11.917787    44.743752    10.561693    -37.935429    -13.898289    -17.061525    31.257154    -11.296026    3.058652    -3.026099    40.559837    0.000000    0.000000    0.000000    -11.202579    12.605571    -11.171252    1.406872    16.617455    -4.410270    15.095552    5.062599    -12.044943    0.000000    0.000000    0.000000    
11.168831    157.966217    -2.278315    -1.596273    10.529449    -9.318336    4.390955    1.606756    13.154889    -5.368790    -2.415103    4.292007    7.472589    -5.069893    -4.413496    3.563895    1.147006    -5.570238    6.127621    -0.689769    -6.223805    -42.471722    12.305768    -42.751793    -4.371239    -23.044847    -125.078415    -1.349332    -30.519968    -4.323445    -13.108541    -1.170209    8.138928    27.195097    -24.126371    69.223877    -1.869695    -16.362389    24.103891    10.394658    -11.810345    44.769367    10.566420    -37.597515    -13.772778    -16.896704    30.903849    -11.360438    3.025306    -2.934432    40.531334    0.000000    0.000000    0.000000    -11.030613    12.261340    -11.542578    1.425446    16.532848    -4.319333    15.894248    4.697932    -11.336281    0.000000    0.000000    0.000000    
11.372921    158.253342    -1.918138    -1.621967    10.555399    -9.432482    4.491263    1.638657    13.105494    -5.554434    -2.431485    4.271715    7.208913    -5.014345    -4.455802    4.090918    1.149777    -5.489801    6.257817    -0.702225    -6.233086    -42.486378    12.367553    -42.720306    -4.387313    -23.066931    -125.093185    -1.332873    -30.570627    -4.288626    -13.023394    -1.194670    8.147815    27.092371    -23.976406    69.220001    -1.967146    -16.405500    24.162123    10.456290    -11.808972    44.758812    10.551757    -37.282200    -13.636614    -16.739019    30.556915    -11.442529    2.994297    -2.813133    40.529110    0.000000    0.000000    0.000000    -10.851144    11.906919    -11.911690    1.424102    16.447620    -4.135495    16.629984    4.400350    -10.939031    0.000000    0.000000    0.000000    
11.583012    158.524429    -1.572756    -1.631560    10.591473    -9.543200    4.440108    1.583133    13.095257    -5.417485    -2.501902    4.266855    7.102335    -4.741310    -4.446749    4.196681    0.998038    -5.423075    6.089912    -0.575667    -6.401954    -42.437798    12.364481    -42.656178    -4.359521    -23.098591    -125.027840    -1.325408    -30.543768    -4.299556    -13.066934    -1.071154    8.274767    27.218370    -24.126570    69.234856    -1.774503    -16.187405    24.230955    10.351690    -11.670427    44.738857    10.518555    -36.987579    -13.442436    -16.517794    30.204296    -11.601045    2.904812    -2.674818    40.504452    0.000000    0.000000    0.000000    -10.686897    11.537911    -12.198075    1.446591    16.380623    -4.020844    17.387650    3.942849    -10.607284    0.000000    0.000000    0.000000    
11.752364    158.781937    -1.228118    -1.664913    10.608306    -9.633904    3.590568    1.818212    13.242100    -3.887089    -3.195944    4.324316    6.293266    -4.716820    -4.628206    4.301435    1.329658    -5.454175    5.292148    -0.324769    -6.580477    -42.645706    12.399563    -42.483135    -4.512216    -22.595041    -125.156586    -1.223253    -30.352837    -4.160339    -13.894133    -0.695504    7.806770    27.313515    -23.909216    69.522942    -1.816346    -16.207970    24.273455    10.368805    -11.671159    44.775291    10.529776    -36.676094    -13.228156    -16.337934    29.898275    -11.736760    2.856766    -2.605139    40.438847    0.000000    0.000000    0.000000    -10.460674    11.207067    -12.458988    1.443127    16.268143    -3.923614    17.967129    3.555912    -10.436411    0.000000    0.000000    0.000000    
11.916703    159.015945    -0.888346    -1.667106    10.618389    -9.722028    3.545488    1.758893    13.189964    -3.809674    -3.141294    4.310087    6.273667    -4.736468    -4.585805    4.300552    1.405044    -5.410268    5.233943    -0.344620    -6.587505    -42.594521    12.485581    -42.593483    -4.475075    -22.679108    -125.103783    -1.197231    -30.362581    -4.049409    -13.959394    -0.715344    7.800955    27.402233    -23.878435    69.586571    -1.778470    -16.104618    24.349907    10.415939    -11.557122    44.738979    10.514349    -36.366867    -13.028868    -16.179790    29.559191    -11.864766    2.816808    -2.500446    40.383316    0.000000    0.000000    0.000000    -10.261974    10.898253    -12.643517    1.442961    16.104908    -3.895702    18.406376    3.206031    -10.318980    0.000000    0.000000    0.000000    
12.075603    159.243301    -0.560054    -1.680141    10.631788    -9.779383    3.588840    1.713289    13.143299    -3.907330    -3.105994    4.292807    6.289092    -4.739800    -4.574904    4.409325    1.449777    -5.389584    5.302825    -0.330065    -6.599104    -42.686886    12.538226    -42.532627    -4.515256    -22.574507    -125.138023    -1.287635    -30.333443    -4.169137    -13.898964    -0.678654    7.774412    27.394613    -23.882568    69.628036    -1.694798    -16.056154    24.403261    10.363042    -11.549361    44.708122    10.486507    -36.084435    -12.842980    -16.020456    29.271379    -11.984190    2.767328    -2.428044    40.328594    0.000000    0.000000    0.000000    -10.057249    10.557652    -12.866028    1.442345    16.022306    -3.969041    18.816488    2.932228    -10.262854    0.000000    0.000000    0.000000    
12.225142    159.443283    -0.246381    -1.673909    10.644134    -9.844543    3.574143    1.638117    13.093122    -3.905492    -3.049014    4.277240    6.320991    -4.753780    -4.549280    4.393954    1.520478    -5.374464    5.303738    -0.321611    -6.609373    -42.713150    12.599011    -42.559467    -4.483005    -22.582087    -125.138367    -1.341494    -30.284533    -4.189815    -13.921982    -0.651653    7.737148    27.482828    -23.885672    69.721718    -1.631337    -15.975815    24.426060    10.363984    -11.476708    44.741760    10.446620    -35.827187    -12.649265    -15.873005    29.023966    -12.082891    2.745014    -2.366222    40.247154    0.000000    0.000000    0.000000    -9.867219    10.243393    -13.102559    1.418164    15.905391    -4.019834    19.118807    2.665228    -10.268703    0.000000    0.000000    0.000000    
12.360034    159.637024    0.056588    -1.663884    10.642963    -9.900121    3.534912    1.582574    13.045258    -3.868473    -3.018684    4.262549    6.224231    -4.793386    -4.546577    4.531064    1.638981    -5.342206    5.266213    -0.322404    -6.634000    -42.692154    12.637097    -42.685837    -4.487720    -22.576923    -125.118462    -1.245191    -30.288494    -4.052623    -13.940712    -0.667695    7.734865    27.451454    -23.828117    69.702278    -1.575498    -15.931256    24.489496    10.346465    -11.452643    44.710312    10.400192    -35.561768    -12.482436    -15.731960    28.765963    -12.181782    2.714530    -2.289231    40.177414    0.000000    0.000000    0.000000    -9.680358    9.975874    -13.260742    1.425283    15.753418    -4.217780    19.418667    2.431733    -10.368237    0.000000    0.000000    0.000000    
12.491902    159.816437    0.355781    -1.656719    10.633482    -9.948449    3.554708    1.552614    12.999354    -3.952833    -3.014916    4.244963    6.263283    -4.785141    -4.533984    4.561288    1.686792    -5.334145    5.297622    -0.329573    -6.648240    -42.720222    12.702148    -42.702831    -4.454846    -22.563229    -125.119431    -1.313893    -30.217781    -4.127648    -13.911216    -0.622068    7.671058    27.498737    -23.806335    69.797447    -1.503105    -15.867827    24.501724    10.296971    -11.432219    44.624672    10.358689    -35.297695    -12.328152    -15.621004    28.515644    -12.267701    2.686962    -2.233555    40.117619    0.000000    0.000000    0.000000    -9.434984    9.724015    -13.681620    1.224706    15.566630    -4.313372    19.610769    2.348965    -10.350284    0.000000    0.000000    0.000000    
